<mxfile host="app.diagrams.net" agent="Mozilla/5.0 (Windows NT 10.0; Win64; x64) AppleWebKit/537.36 (KHTML, like Gecko) Chrome/131.0.0.0 Safari/537.36" version="25.0.1">
  <diagram name="Pagina-1" id="XRNuTaB9I9MSfYOUS6OP">
    <mxGraphModel dx="3059" dy="2220" grid="1" gridSize="10" guides="1" tooltips="1" connect="1" arrows="1" fold="1" page="1" pageScale="1" pageWidth="827" pageHeight="1169" math="0" shadow="0">
      <root>
        <mxCell id="0" />
        <mxCell id="1" parent="0" />
        <mxCell id="pUwQ2fJmEz475Cd50NN1-1" value="Schip" style="whiteSpace=wrap;html=1;align=center;" parent="1" vertex="1">
          <mxGeometry x="84" y="-150" width="100" height="40" as="geometry" />
        </mxCell>
        <mxCell id="pUwQ2fJmEz475Cd50NN1-2" value="Naam" style="ellipse;whiteSpace=wrap;html=1;align=center;" parent="1" vertex="1">
          <mxGeometry x="-40" y="-140" width="100" height="40" as="geometry" />
        </mxCell>
        <mxCell id="pUwQ2fJmEz475Cd50NN1-5" value="Cruise" style="whiteSpace=wrap;html=1;align=center;" parent="1" vertex="1">
          <mxGeometry x="500" y="-150" width="100" height="40" as="geometry" />
        </mxCell>
        <mxCell id="pUwQ2fJmEz475Cd50NN1-6" value="maakt" style="shape=rhombus;perimeter=rhombusPerimeter;whiteSpace=wrap;html=1;align=center;" parent="1" vertex="1">
          <mxGeometry x="270" y="-160" width="120" height="60" as="geometry" />
        </mxCell>
        <mxCell id="pUwQ2fJmEz475Cd50NN1-7" value="" style="endArrow=none;html=1;rounded=0;" parent="1" source="pUwQ2fJmEz475Cd50NN1-6" target="pUwQ2fJmEz475Cd50NN1-1" edge="1">
          <mxGeometry relative="1" as="geometry">
            <mxPoint x="430" y="290" as="sourcePoint" />
            <mxPoint x="590" y="290" as="targetPoint" />
          </mxGeometry>
        </mxCell>
        <mxCell id="pUwQ2fJmEz475Cd50NN1-18" value="(1, N)" style="edgeLabel;html=1;align=center;verticalAlign=middle;resizable=0;points=[];" parent="pUwQ2fJmEz475Cd50NN1-7" vertex="1" connectable="0">
          <mxGeometry x="0.5378" relative="1" as="geometry">
            <mxPoint x="-1" y="-1" as="offset" />
          </mxGeometry>
        </mxCell>
        <mxCell id="pUwQ2fJmEz475Cd50NN1-8" value="" style="endArrow=none;html=1;rounded=0;" parent="1" source="pUwQ2fJmEz475Cd50NN1-6" target="pUwQ2fJmEz475Cd50NN1-5" edge="1">
          <mxGeometry relative="1" as="geometry">
            <mxPoint x="414" y="330" as="sourcePoint" />
            <mxPoint x="414" y="450" as="targetPoint" />
          </mxGeometry>
        </mxCell>
        <mxCell id="pUwQ2fJmEz475Cd50NN1-19" value="(1, 1)" style="edgeLabel;html=1;align=center;verticalAlign=middle;resizable=0;points=[];" parent="pUwQ2fJmEz475Cd50NN1-8" vertex="1" connectable="0">
          <mxGeometry x="0.47" relative="1" as="geometry">
            <mxPoint y="-2" as="offset" />
          </mxGeometry>
        </mxCell>
        <mxCell id="pUwQ2fJmEz475Cd50NN1-22" value="Haven" style="whiteSpace=wrap;html=1;align=center;" parent="1" vertex="1">
          <mxGeometry x="870.67" y="130" width="100" height="40" as="geometry" />
        </mxCell>
        <mxCell id="pUwQ2fJmEz475Cd50NN1-23" value="Diepgang" style="ellipse;whiteSpace=wrap;html=1;align=center;" parent="1" vertex="1">
          <mxGeometry x="-40" y="-210" width="100" height="40" as="geometry" />
        </mxCell>
        <mxCell id="pUwQ2fJmEz475Cd50NN1-24" value="Diepgang" style="ellipse;whiteSpace=wrap;html=1;align=center;" parent="1" vertex="1">
          <mxGeometry x="1091.67" y="130" width="100" height="40" as="geometry" />
        </mxCell>
        <mxCell id="pUwQ2fJmEz475Cd50NN1-26" value="meert aan" style="shape=rhombus;perimeter=rhombusPerimeter;whiteSpace=wrap;html=1;align=center;" parent="1" vertex="1">
          <mxGeometry x="860.67" y="-30" width="120" height="60" as="geometry" />
        </mxCell>
        <mxCell id="pUwQ2fJmEz475Cd50NN1-27" value="" style="endArrow=none;html=1;rounded=0;" parent="1" source="6py6n70W8u-sqlm3amzu-8" target="pUwQ2fJmEz475Cd50NN1-26" edge="1">
          <mxGeometry relative="1" as="geometry">
            <mxPoint x="210.67000000000002" y="250" as="sourcePoint" />
            <mxPoint x="370.67" y="250" as="targetPoint" />
          </mxGeometry>
        </mxCell>
        <mxCell id="pUwQ2fJmEz475Cd50NN1-29" value="(1, N)" style="edgeLabel;html=1;align=center;verticalAlign=middle;resizable=0;points=[];" parent="pUwQ2fJmEz475Cd50NN1-27" vertex="1" connectable="0">
          <mxGeometry x="-0.576" y="1" relative="1" as="geometry">
            <mxPoint as="offset" />
          </mxGeometry>
        </mxCell>
        <mxCell id="pUwQ2fJmEz475Cd50NN1-28" value="" style="endArrow=none;html=1;rounded=0;" parent="1" source="pUwQ2fJmEz475Cd50NN1-22" target="pUwQ2fJmEz475Cd50NN1-26" edge="1">
          <mxGeometry relative="1" as="geometry">
            <mxPoint x="210.67000000000002" y="210" as="sourcePoint" />
            <mxPoint x="370.67" y="210" as="targetPoint" />
          </mxGeometry>
        </mxCell>
        <mxCell id="pUwQ2fJmEz475Cd50NN1-30" value="(0, M)" style="edgeLabel;html=1;align=center;verticalAlign=middle;resizable=0;points=[];" parent="pUwQ2fJmEz475Cd50NN1-28" vertex="1" connectable="0">
          <mxGeometry x="-0.52" y="-1" relative="1" as="geometry">
            <mxPoint x="-1" y="9" as="offset" />
          </mxGeometry>
        </mxCell>
        <mxCell id="pUwQ2fJmEz475Cd50NN1-31" value="Passagier" style="whiteSpace=wrap;html=1;align=center;" parent="1" vertex="1">
          <mxGeometry x="500" y="430" width="100" height="40" as="geometry" />
        </mxCell>
        <mxCell id="pUwQ2fJmEz475Cd50NN1-35" value="Naam" style="ellipse;whiteSpace=wrap;html=1;align=center;" parent="1" vertex="1">
          <mxGeometry x="680" y="520" width="100" height="40" as="geometry" />
        </mxCell>
        <mxCell id="qJNfwfcQ3lbtcBfEXmdF-8" value="" style="ellipse;whiteSpace=wrap;html=1;align=center;aspect=fixed;fillColor=none;strokeColor=none;resizable=0;perimeter=centerPerimeter;rotatable=0;allowArrows=0;points=[];outlineConnect=1;" parent="1" vertex="1">
          <mxGeometry x="414" y="170" width="10" height="10" as="geometry" />
        </mxCell>
        <mxCell id="qJNfwfcQ3lbtcBfEXmdF-18" value="" style="ellipse;whiteSpace=wrap;html=1;align=center;aspect=fixed;fillColor=none;strokeColor=none;resizable=0;perimeter=centerPerimeter;rotatable=0;allowArrows=0;points=[];outlineConnect=1;" parent="1" vertex="1">
          <mxGeometry x="360" y="340" width="10" height="10" as="geometry" />
        </mxCell>
        <mxCell id="qJNfwfcQ3lbtcBfEXmdF-20" value="" style="ellipse;whiteSpace=wrap;html=1;align=center;aspect=fixed;fillColor=none;strokeColor=none;resizable=0;perimeter=centerPerimeter;rotatable=0;allowArrows=0;points=[];outlineConnect=1;" parent="1" vertex="1">
          <mxGeometry x="360" y="340" width="10" height="10" as="geometry" />
        </mxCell>
        <mxCell id="qJNfwfcQ3lbtcBfEXmdF-59" value="" style="endArrow=none;html=1;rounded=0;" parent="1" source="cuRq2xwsvb8BkS9qzXSF-5" target="pUwQ2fJmEz475Cd50NN1-5" edge="1">
          <mxGeometry width="50" height="50" relative="1" as="geometry">
            <mxPoint x="527.6393202250024" y="-7.888543819997722" as="sourcePoint" />
            <mxPoint x="80" y="-180" as="targetPoint" />
          </mxGeometry>
        </mxCell>
        <mxCell id="qJNfwfcQ3lbtcBfEXmdF-60" value="" style="endArrow=none;html=1;rounded=0;" parent="1" source="qJNfwfcQ3lbtcBfEXmdF-95" target="pUwQ2fJmEz475Cd50NN1-5" edge="1">
          <mxGeometry width="50" height="50" relative="1" as="geometry">
            <mxPoint x="443.6301286227949" y="3.3068318421273943" as="sourcePoint" />
            <mxPoint x="293.33333333333303" y="-16.49000000000001" as="targetPoint" />
          </mxGeometry>
        </mxCell>
        <mxCell id="qJNfwfcQ3lbtcBfEXmdF-64" value="" style="endArrow=none;html=1;rounded=0;" parent="1" source="pUwQ2fJmEz475Cd50NN1-31" target="pUwQ2fJmEz475Cd50NN1-35" edge="1">
          <mxGeometry width="50" height="50" relative="1" as="geometry">
            <mxPoint x="910" y="490" as="sourcePoint" />
            <mxPoint x="960" y="440" as="targetPoint" />
          </mxGeometry>
        </mxCell>
        <mxCell id="qJNfwfcQ3lbtcBfEXmdF-65" value="" style="endArrow=none;html=1;rounded=0;" parent="1" source="pUwQ2fJmEz475Cd50NN1-1" target="pUwQ2fJmEz475Cd50NN1-2" edge="1">
          <mxGeometry width="50" height="50" relative="1" as="geometry">
            <mxPoint x="45" y="-210" as="sourcePoint" />
            <mxPoint x="95" y="-260" as="targetPoint" />
          </mxGeometry>
        </mxCell>
        <mxCell id="qJNfwfcQ3lbtcBfEXmdF-67" value="" style="endArrow=none;html=1;rounded=0;" parent="1" source="pUwQ2fJmEz475Cd50NN1-1" target="pUwQ2fJmEz475Cd50NN1-23" edge="1">
          <mxGeometry width="50" height="50" relative="1" as="geometry">
            <mxPoint x="150" y="-90" as="sourcePoint" />
            <mxPoint x="200" y="-140" as="targetPoint" />
          </mxGeometry>
        </mxCell>
        <mxCell id="qJNfwfcQ3lbtcBfEXmdF-71" value="" style="endArrow=none;html=1;rounded=0;" parent="1" source="pUwQ2fJmEz475Cd50NN1-22" target="pUwQ2fJmEz475Cd50NN1-24" edge="1">
          <mxGeometry relative="1" as="geometry">
            <mxPoint x="240.67000000000002" y="110" as="sourcePoint" />
            <mxPoint x="400.67" y="110" as="targetPoint" />
          </mxGeometry>
        </mxCell>
        <mxCell id="qJNfwfcQ3lbtcBfEXmdF-92" value="MaxPassagiers" style="ellipse;whiteSpace=wrap;html=1;align=center;" parent="1" vertex="1">
          <mxGeometry x="60" y="-240" width="100" height="40" as="geometry" />
        </mxCell>
        <mxCell id="qJNfwfcQ3lbtcBfEXmdF-94" value="" style="endArrow=none;html=1;rounded=0;" parent="1" source="qJNfwfcQ3lbtcBfEXmdF-92" target="pUwQ2fJmEz475Cd50NN1-1" edge="1">
          <mxGeometry relative="1" as="geometry">
            <mxPoint x="150" y="60" as="sourcePoint" />
            <mxPoint x="310" y="60" as="targetPoint" />
          </mxGeometry>
        </mxCell>
        <mxCell id="qJNfwfcQ3lbtcBfEXmdF-95" value="Prijs" style="ellipse;whiteSpace=wrap;html=1;align=center;" parent="1" vertex="1">
          <mxGeometry x="414" y="-270" width="100" height="40" as="geometry" />
        </mxCell>
        <mxCell id="qJNfwfcQ3lbtcBfEXmdF-97" value="Email" style="ellipse;whiteSpace=wrap;html=1;align=center;" parent="1" vertex="1">
          <mxGeometry x="510" y="560" width="100" height="40" as="geometry" />
        </mxCell>
        <mxCell id="qJNfwfcQ3lbtcBfEXmdF-98" value="Geslacht" style="ellipse;whiteSpace=wrap;html=1;align=center;" parent="1" vertex="1">
          <mxGeometry x="440" y="520" width="100" height="40" as="geometry" />
        </mxCell>
        <mxCell id="qJNfwfcQ3lbtcBfEXmdF-103" value="" style="endArrow=none;html=1;rounded=0;" parent="1" source="pUwQ2fJmEz475Cd50NN1-31" target="qJNfwfcQ3lbtcBfEXmdF-98" edge="1">
          <mxGeometry relative="1" as="geometry">
            <mxPoint x="720" y="600" as="sourcePoint" />
            <mxPoint x="880" y="600" as="targetPoint" />
          </mxGeometry>
        </mxCell>
        <mxCell id="qJNfwfcQ3lbtcBfEXmdF-104" value="" style="endArrow=none;html=1;rounded=0;" parent="1" source="pUwQ2fJmEz475Cd50NN1-31" target="qJNfwfcQ3lbtcBfEXmdF-97" edge="1">
          <mxGeometry relative="1" as="geometry">
            <mxPoint x="720" y="600" as="sourcePoint" />
            <mxPoint x="880" y="600" as="targetPoint" />
          </mxGeometry>
        </mxCell>
        <mxCell id="qJNfwfcQ3lbtcBfEXmdF-105" value="" style="endArrow=none;html=1;rounded=0;" parent="1" source="pUwQ2fJmEz475Cd50NN1-31" target="wY1Jhq9nbb_D-YmXi5Cw-1" edge="1">
          <mxGeometry relative="1" as="geometry">
            <mxPoint x="720" y="600" as="sourcePoint" />
            <mxPoint x="591.4304661822948" y="418.5695338177052" as="targetPoint" />
          </mxGeometry>
        </mxCell>
        <mxCell id="DrXieHFXnKrN3Des5yO1-2" value="IMO-Nummer" style="ellipse;whiteSpace=wrap;html=1;align=center;fontStyle=4;" parent="1" vertex="1">
          <mxGeometry x="170" y="-220" width="100" height="40" as="geometry" />
        </mxCell>
        <mxCell id="DrXieHFXnKrN3Des5yO1-3" style="edgeStyle=orthogonalEdgeStyle;rounded=0;orthogonalLoop=1;jettySize=auto;html=1;exitX=0.5;exitY=1;exitDx=0;exitDy=0;" parent="1" source="DrXieHFXnKrN3Des5yO1-2" target="DrXieHFXnKrN3Des5yO1-2" edge="1">
          <mxGeometry relative="1" as="geometry" />
        </mxCell>
        <mxCell id="DrXieHFXnKrN3Des5yO1-4" value="" style="endArrow=none;html=1;rounded=0;" parent="1" source="DrXieHFXnKrN3Des5yO1-2" target="pUwQ2fJmEz475Cd50NN1-1" edge="1">
          <mxGeometry relative="1" as="geometry">
            <mxPoint x="120" y="-120" as="sourcePoint" />
            <mxPoint x="280" y="-120" as="targetPoint" />
          </mxGeometry>
        </mxCell>
        <mxCell id="cuRq2xwsvb8BkS9qzXSF-2" value="" style="endArrow=none;html=1;rounded=0;" parent="1" source="pUwQ2fJmEz475Cd50NN1-22" target="5feP8xrwqYPuZHJrp24q-1" edge="1">
          <mxGeometry relative="1" as="geometry">
            <mxPoint x="480.66999999999996" y="80" as="sourcePoint" />
            <mxPoint x="646.0434085905152" y="105.5722535793816" as="targetPoint" />
          </mxGeometry>
        </mxCell>
        <mxCell id="cuRq2xwsvb8BkS9qzXSF-5" value="CruiseID" style="ellipse;whiteSpace=wrap;html=1;align=center;fontStyle=4;" parent="1" vertex="1">
          <mxGeometry x="390" y="-220" width="100" height="40" as="geometry" />
        </mxCell>
        <mxCell id="wY1Jhq9nbb_D-YmXi5Cw-1" value="Geboortedatum" style="ellipse;whiteSpace=wrap;html=1;align=center;" parent="1" vertex="1">
          <mxGeometry x="680" y="470" width="100" height="40" as="geometry" />
        </mxCell>
        <mxCell id="wY1Jhq9nbb_D-YmXi5Cw-2" value="Leeftijd" style="ellipse;whiteSpace=wrap;html=1;align=center;dashed=1;" parent="1" vertex="1">
          <mxGeometry x="640" y="420" width="100" height="40" as="geometry" />
        </mxCell>
        <mxCell id="wY1Jhq9nbb_D-YmXi5Cw-3" value="" style="endArrow=none;html=1;rounded=0;" parent="1" source="pUwQ2fJmEz475Cd50NN1-31" target="wY1Jhq9nbb_D-YmXi5Cw-2" edge="1">
          <mxGeometry relative="1" as="geometry">
            <mxPoint x="660" y="460" as="sourcePoint" />
            <mxPoint x="820" y="460" as="targetPoint" />
          </mxGeometry>
        </mxCell>
        <mxCell id="5feP8xrwqYPuZHJrp24q-1" value="Locatie" style="ellipse;whiteSpace=wrap;html=1;align=center;" parent="1" vertex="1">
          <mxGeometry x="991.6700000000001" y="90" width="100" height="40" as="geometry" />
        </mxCell>
        <mxCell id="5feP8xrwqYPuZHJrp24q-2" value="HavenID" style="ellipse;whiteSpace=wrap;html=1;align=center;fontStyle=4;" parent="1" vertex="1">
          <mxGeometry x="980.6700000000001" y="170" width="100" height="40" as="geometry" />
        </mxCell>
        <mxCell id="5feP8xrwqYPuZHJrp24q-4" value="" style="endArrow=none;html=1;rounded=0;" parent="1" source="5feP8xrwqYPuZHJrp24q-2" target="pUwQ2fJmEz475Cd50NN1-22" edge="1">
          <mxGeometry relative="1" as="geometry">
            <mxPoint x="550.67" y="130" as="sourcePoint" />
            <mxPoint x="710.67" y="130" as="targetPoint" />
          </mxGeometry>
        </mxCell>
        <mxCell id="Md8f5wel5p4pY7qYxArj-5" value="Van" style="ellipse;whiteSpace=wrap;html=1;align=center;" parent="1" vertex="1">
          <mxGeometry x="980.6700000000001" y="-60" width="100" height="40" as="geometry" />
        </mxCell>
        <mxCell id="Md8f5wel5p4pY7qYxArj-6" value="Tot" style="ellipse;whiteSpace=wrap;html=1;align=center;" parent="1" vertex="1">
          <mxGeometry x="1080.67" y="-20" width="100" height="40" as="geometry" />
        </mxCell>
        <mxCell id="Md8f5wel5p4pY7qYxArj-7" value="" style="endArrow=none;html=1;rounded=0;" parent="1" source="pUwQ2fJmEz475Cd50NN1-26" target="Md8f5wel5p4pY7qYxArj-5" edge="1">
          <mxGeometry relative="1" as="geometry">
            <mxPoint x="340.67" y="270" as="sourcePoint" />
            <mxPoint x="500.66999999999996" y="270" as="targetPoint" />
          </mxGeometry>
        </mxCell>
        <mxCell id="Md8f5wel5p4pY7qYxArj-8" value="" style="endArrow=none;html=1;rounded=0;" parent="1" source="pUwQ2fJmEz475Cd50NN1-26" target="Md8f5wel5p4pY7qYxArj-6" edge="1">
          <mxGeometry relative="1" as="geometry">
            <mxPoint x="340.67" y="270" as="sourcePoint" />
            <mxPoint x="500.66999999999996" y="270" as="targetPoint" />
          </mxGeometry>
        </mxCell>
        <mxCell id="6py6n70W8u-sqlm3amzu-1" value="Naam" style="ellipse;whiteSpace=wrap;html=1;align=center;" parent="1" vertex="1">
          <mxGeometry x="500" y="-300" width="100" height="40" as="geometry" />
        </mxCell>
        <mxCell id="6py6n70W8u-sqlm3amzu-2" value="" style="endArrow=none;html=1;rounded=0;" parent="1" source="pUwQ2fJmEz475Cd50NN1-5" target="6py6n70W8u-sqlm3amzu-1" edge="1">
          <mxGeometry relative="1" as="geometry">
            <mxPoint x="410" y="-50" as="sourcePoint" />
            <mxPoint x="570" y="-50" as="targetPoint" />
          </mxGeometry>
        </mxCell>
        <mxCell id="6py6n70W8u-sqlm3amzu-3" value="Vertrek" style="ellipse;whiteSpace=wrap;html=1;align=center;" parent="1" vertex="1">
          <mxGeometry x="560" y="-260" width="100" height="40" as="geometry" />
        </mxCell>
        <mxCell id="6py6n70W8u-sqlm3amzu-4" value="Aankomst" style="ellipse;whiteSpace=wrap;html=1;align=center;" parent="1" vertex="1">
          <mxGeometry x="600" y="-210" width="100" height="40" as="geometry" />
        </mxCell>
        <mxCell id="6py6n70W8u-sqlm3amzu-6" value="" style="endArrow=none;html=1;rounded=0;" parent="1" source="6py6n70W8u-sqlm3amzu-3" target="pUwQ2fJmEz475Cd50NN1-5" edge="1">
          <mxGeometry relative="1" as="geometry">
            <mxPoint x="440" y="-70" as="sourcePoint" />
            <mxPoint x="600" y="-70" as="targetPoint" />
          </mxGeometry>
        </mxCell>
        <mxCell id="6py6n70W8u-sqlm3amzu-7" value="" style="endArrow=none;html=1;rounded=0;" parent="1" source="6py6n70W8u-sqlm3amzu-4" target="pUwQ2fJmEz475Cd50NN1-5" edge="1">
          <mxGeometry relative="1" as="geometry">
            <mxPoint x="440" y="-70" as="sourcePoint" />
            <mxPoint x="600" y="-70" as="targetPoint" />
          </mxGeometry>
        </mxCell>
        <mxCell id="6py6n70W8u-sqlm3amzu-8" value="Vaarroute" style="whiteSpace=wrap;html=1;align=center;" parent="1" vertex="1">
          <mxGeometry x="870.67" y="-150" width="100" height="40" as="geometry" />
        </mxCell>
        <mxCell id="6py6n70W8u-sqlm3amzu-9" value="volgt" style="shape=rhombus;perimeter=rhombusPerimeter;whiteSpace=wrap;html=1;align=center;" parent="1" vertex="1">
          <mxGeometry x="690" y="-160" width="120" height="60" as="geometry" />
        </mxCell>
        <mxCell id="6py6n70W8u-sqlm3amzu-11" value="" style="endArrow=none;html=1;rounded=0;" parent="1" source="6py6n70W8u-sqlm3amzu-8" target="6py6n70W8u-sqlm3amzu-9" edge="1">
          <mxGeometry relative="1" as="geometry">
            <mxPoint x="250" y="-30" as="sourcePoint" />
            <mxPoint x="410" y="-30" as="targetPoint" />
          </mxGeometry>
        </mxCell>
        <mxCell id="6py6n70W8u-sqlm3amzu-14" value="(1, N)" style="edgeLabel;html=1;align=center;verticalAlign=middle;resizable=0;points=[];" parent="6py6n70W8u-sqlm3amzu-11" vertex="1" connectable="0">
          <mxGeometry x="-0.5231" y="3" relative="1" as="geometry">
            <mxPoint y="-3" as="offset" />
          </mxGeometry>
        </mxCell>
        <mxCell id="6py6n70W8u-sqlm3amzu-12" value="" style="endArrow=none;html=1;rounded=0;" parent="1" source="pUwQ2fJmEz475Cd50NN1-5" target="6py6n70W8u-sqlm3amzu-9" edge="1">
          <mxGeometry relative="1" as="geometry">
            <mxPoint x="330" y="-30" as="sourcePoint" />
            <mxPoint x="490" y="-30" as="targetPoint" />
          </mxGeometry>
        </mxCell>
        <mxCell id="6py6n70W8u-sqlm3amzu-13" value="(1, 1)" style="edgeLabel;html=1;align=center;verticalAlign=middle;resizable=0;points=[];" parent="6py6n70W8u-sqlm3amzu-12" vertex="1" connectable="0">
          <mxGeometry x="-0.6471" y="-2" relative="1" as="geometry">
            <mxPoint y="-4" as="offset" />
          </mxGeometry>
        </mxCell>
        <mxCell id="6py6n70W8u-sqlm3amzu-15" value="Beschrijving" style="ellipse;whiteSpace=wrap;html=1;align=center;" parent="1" vertex="1">
          <mxGeometry x="940.67" y="-240" width="100" height="40" as="geometry" />
        </mxCell>
        <mxCell id="6py6n70W8u-sqlm3amzu-18" value="RouteID" style="ellipse;whiteSpace=wrap;html=1;align=center;fontStyle=4;" parent="1" vertex="1">
          <mxGeometry x="840.67" y="-270" width="100" height="40" as="geometry" />
        </mxCell>
        <mxCell id="6py6n70W8u-sqlm3amzu-19" value="" style="endArrow=none;html=1;rounded=0;" parent="1" source="6py6n70W8u-sqlm3amzu-15" target="6py6n70W8u-sqlm3amzu-8" edge="1">
          <mxGeometry relative="1" as="geometry">
            <mxPoint x="700.67" y="-30" as="sourcePoint" />
            <mxPoint x="860.67" y="-30" as="targetPoint" />
          </mxGeometry>
        </mxCell>
        <mxCell id="6py6n70W8u-sqlm3amzu-20" value="" style="endArrow=none;html=1;rounded=0;" parent="1" source="6py6n70W8u-sqlm3amzu-18" target="6py6n70W8u-sqlm3amzu-8" edge="1">
          <mxGeometry relative="1" as="geometry">
            <mxPoint x="700.67" y="-30" as="sourcePoint" />
            <mxPoint x="860.67" y="-30" as="targetPoint" />
          </mxGeometry>
        </mxCell>
        <mxCell id="6py6n70W8u-sqlm3amzu-22" value="attractie" style="whiteSpace=wrap;html=1;align=center;" parent="1" vertex="1">
          <mxGeometry x="870.67" y="430" width="100" height="40" as="geometry" />
        </mxCell>
        <mxCell id="6py6n70W8u-sqlm3amzu-26" value="Naam" style="ellipse;whiteSpace=wrap;html=1;align=center;" parent="1" vertex="1">
          <mxGeometry x="1000.6700000000001" y="380" width="100" height="40" as="geometry" />
        </mxCell>
        <mxCell id="6py6n70W8u-sqlm3amzu-27" value="Beschrijving" style="ellipse;whiteSpace=wrap;html=1;align=center;" parent="1" vertex="1">
          <mxGeometry x="1060.67" y="420" width="100" height="40" as="geometry" />
        </mxCell>
        <mxCell id="6py6n70W8u-sqlm3amzu-28" value="Afstand van haven" style="ellipse;whiteSpace=wrap;html=1;align=center;" parent="1" vertex="1">
          <mxGeometry x="1010.6700000000001" y="465.87" width="100" height="40" as="geometry" />
        </mxCell>
        <mxCell id="6py6n70W8u-sqlm3amzu-30" value="ligt bij" style="shape=rhombus;perimeter=rhombusPerimeter;whiteSpace=wrap;html=1;align=center;" parent="1" vertex="1">
          <mxGeometry x="860.67" y="280" width="120" height="60" as="geometry" />
        </mxCell>
        <mxCell id="6py6n70W8u-sqlm3amzu-31" value="" style="endArrow=none;html=1;rounded=0;" parent="1" source="6py6n70W8u-sqlm3amzu-30" target="pUwQ2fJmEz475Cd50NN1-22" edge="1">
          <mxGeometry relative="1" as="geometry">
            <mxPoint x="750.67" y="290" as="sourcePoint" />
            <mxPoint x="910.67" y="290" as="targetPoint" />
          </mxGeometry>
        </mxCell>
        <mxCell id="6py6n70W8u-sqlm3amzu-41" value="(0, N)" style="edgeLabel;html=1;align=center;verticalAlign=middle;resizable=0;points=[];" parent="6py6n70W8u-sqlm3amzu-31" vertex="1" connectable="0">
          <mxGeometry x="0.6333" y="-1" relative="1" as="geometry">
            <mxPoint as="offset" />
          </mxGeometry>
        </mxCell>
        <mxCell id="6py6n70W8u-sqlm3amzu-32" value="" style="endArrow=none;html=1;rounded=0;" parent="1" source="6py6n70W8u-sqlm3amzu-30" target="6py6n70W8u-sqlm3amzu-22" edge="1">
          <mxGeometry relative="1" as="geometry">
            <mxPoint x="750.67" y="290" as="sourcePoint" />
            <mxPoint x="910.67" y="290" as="targetPoint" />
          </mxGeometry>
        </mxCell>
        <mxCell id="6py6n70W8u-sqlm3amzu-40" value="(1, 1)" style="edgeLabel;html=1;align=center;verticalAlign=middle;resizable=0;points=[];" parent="6py6n70W8u-sqlm3amzu-32" vertex="1" connectable="0">
          <mxGeometry x="0.65" y="1" relative="1" as="geometry">
            <mxPoint as="offset" />
          </mxGeometry>
        </mxCell>
        <mxCell id="6py6n70W8u-sqlm3amzu-33" value="" style="endArrow=none;html=1;rounded=0;" parent="1" source="6py6n70W8u-sqlm3amzu-27" target="6py6n70W8u-sqlm3amzu-22" edge="1">
          <mxGeometry relative="1" as="geometry">
            <mxPoint x="750.67" y="250" as="sourcePoint" />
            <mxPoint x="910.67" y="250" as="targetPoint" />
          </mxGeometry>
        </mxCell>
        <mxCell id="6py6n70W8u-sqlm3amzu-34" value="" style="endArrow=none;html=1;rounded=0;" parent="1" source="6py6n70W8u-sqlm3amzu-26" target="6py6n70W8u-sqlm3amzu-22" edge="1">
          <mxGeometry relative="1" as="geometry">
            <mxPoint x="750.67" y="250" as="sourcePoint" />
            <mxPoint x="910.67" y="250" as="targetPoint" />
          </mxGeometry>
        </mxCell>
        <mxCell id="6py6n70W8u-sqlm3amzu-35" value="" style="endArrow=none;html=1;rounded=0;" parent="1" source="6py6n70W8u-sqlm3amzu-22" target="6py6n70W8u-sqlm3amzu-28" edge="1">
          <mxGeometry relative="1" as="geometry">
            <mxPoint x="750.67" y="250" as="sourcePoint" />
            <mxPoint x="910.67" y="250" as="targetPoint" />
          </mxGeometry>
        </mxCell>
        <mxCell id="6py6n70W8u-sqlm3amzu-38" value="AttractieID" style="ellipse;whiteSpace=wrap;html=1;align=center;fontStyle=4;" parent="1" vertex="1">
          <mxGeometry x="961.6700000000001" y="510" width="100" height="40" as="geometry" />
        </mxCell>
        <mxCell id="6py6n70W8u-sqlm3amzu-39" value="" style="endArrow=none;html=1;rounded=0;" parent="1" source="6py6n70W8u-sqlm3amzu-38" target="6py6n70W8u-sqlm3amzu-22" edge="1">
          <mxGeometry relative="1" as="geometry">
            <mxPoint x="750.67" y="250" as="sourcePoint" />
            <mxPoint x="910.67" y="250" as="targetPoint" />
          </mxGeometry>
        </mxCell>
        <mxCell id="6py6n70W8u-sqlm3amzu-42" value="Boeking" style="whiteSpace=wrap;html=1;align=center;" parent="1" vertex="1">
          <mxGeometry x="500" y="130" width="100" height="40" as="geometry" />
        </mxCell>
        <mxCell id="6py6n70W8u-sqlm3amzu-43" value="is van" style="shape=rhombus;perimeter=rhombusPerimeter;whiteSpace=wrap;html=1;align=center;" parent="1" vertex="1">
          <mxGeometry x="490" y="-30" width="120" height="60" as="geometry" />
        </mxCell>
        <mxCell id="6py6n70W8u-sqlm3amzu-44" value="" style="endArrow=none;html=1;rounded=0;" parent="1" source="6py6n70W8u-sqlm3amzu-42" target="6py6n70W8u-sqlm3amzu-43" edge="1">
          <mxGeometry relative="1" as="geometry">
            <mxPoint x="400" y="20" as="sourcePoint" />
            <mxPoint x="560" y="20" as="targetPoint" />
          </mxGeometry>
        </mxCell>
        <mxCell id="6py6n70W8u-sqlm3amzu-46" value="(1, 1)" style="edgeLabel;html=1;align=center;verticalAlign=middle;resizable=0;points=[];" parent="6py6n70W8u-sqlm3amzu-44" vertex="1" connectable="0">
          <mxGeometry x="-0.6857" relative="1" as="geometry">
            <mxPoint as="offset" />
          </mxGeometry>
        </mxCell>
        <mxCell id="6py6n70W8u-sqlm3amzu-45" value="" style="endArrow=none;html=1;rounded=0;" parent="1" source="pUwQ2fJmEz475Cd50NN1-5" target="6py6n70W8u-sqlm3amzu-43" edge="1">
          <mxGeometry relative="1" as="geometry">
            <mxPoint x="400" y="60" as="sourcePoint" />
            <mxPoint x="560" y="60" as="targetPoint" />
          </mxGeometry>
        </mxCell>
        <mxCell id="6py6n70W8u-sqlm3amzu-47" value="(1, N)" style="edgeLabel;html=1;align=center;verticalAlign=middle;resizable=0;points=[];" parent="6py6n70W8u-sqlm3amzu-45" vertex="1" connectable="0">
          <mxGeometry x="-0.65" relative="1" as="geometry">
            <mxPoint as="offset" />
          </mxGeometry>
        </mxCell>
        <mxCell id="6py6n70W8u-sqlm3amzu-51" value="BoekingID" style="ellipse;whiteSpace=wrap;html=1;align=center;fontStyle=4;" parent="1" vertex="1">
          <mxGeometry x="620" y="90" width="100" height="40" as="geometry" />
        </mxCell>
        <mxCell id="6py6n70W8u-sqlm3amzu-52" value="" style="endArrow=none;html=1;rounded=0;" parent="1" source="6py6n70W8u-sqlm3amzu-51" target="6py6n70W8u-sqlm3amzu-42" edge="1">
          <mxGeometry relative="1" as="geometry">
            <mxPoint x="350" y="190" as="sourcePoint" />
            <mxPoint x="510" y="190" as="targetPoint" />
          </mxGeometry>
        </mxCell>
        <mxCell id="6py6n70W8u-sqlm3amzu-53" value="PassagiersID" style="ellipse;whiteSpace=wrap;html=1;align=center;fontStyle=4;" parent="1" vertex="1">
          <mxGeometry x="570" y="505" width="100" height="40" as="geometry" />
        </mxCell>
        <mxCell id="6py6n70W8u-sqlm3amzu-54" value="" style="endArrow=none;html=1;rounded=0;" parent="1" source="pUwQ2fJmEz475Cd50NN1-31" target="6py6n70W8u-sqlm3amzu-53" edge="1">
          <mxGeometry relative="1" as="geometry">
            <mxPoint x="460" y="290" as="sourcePoint" />
            <mxPoint x="620" y="290" as="targetPoint" />
          </mxGeometry>
        </mxCell>
        <mxCell id="6py6n70W8u-sqlm3amzu-55" value="Nationaliteit" style="ellipse;whiteSpace=wrap;html=1;align=center;" parent="1" vertex="1">
          <mxGeometry x="390" y="465" width="100" height="40" as="geometry" />
        </mxCell>
        <mxCell id="6py6n70W8u-sqlm3amzu-56" value="" style="endArrow=none;html=1;rounded=0;" parent="1" source="pUwQ2fJmEz475Cd50NN1-31" target="6py6n70W8u-sqlm3amzu-55" edge="1">
          <mxGeometry relative="1" as="geometry">
            <mxPoint x="460" y="290" as="sourcePoint" />
            <mxPoint x="620" y="290" as="targetPoint" />
          </mxGeometry>
        </mxCell>
        <mxCell id="6py6n70W8u-sqlm3amzu-57" value="maakt deel uit van" style="shape=rhombus;perimeter=rhombusPerimeter;whiteSpace=wrap;html=1;align=center;" parent="1" vertex="1">
          <mxGeometry x="490" y="280" width="120" height="60" as="geometry" />
        </mxCell>
        <mxCell id="6py6n70W8u-sqlm3amzu-58" value="" style="endArrow=none;html=1;rounded=0;" parent="1" source="pUwQ2fJmEz475Cd50NN1-31" target="6py6n70W8u-sqlm3amzu-57" edge="1">
          <mxGeometry relative="1" as="geometry">
            <mxPoint x="460" y="330" as="sourcePoint" />
            <mxPoint x="620" y="330" as="targetPoint" />
          </mxGeometry>
        </mxCell>
        <mxCell id="6py6n70W8u-sqlm3amzu-60" value="(1, 1)" style="edgeLabel;html=1;align=center;verticalAlign=middle;resizable=0;points=[];" parent="6py6n70W8u-sqlm3amzu-58" vertex="1" connectable="0">
          <mxGeometry x="-0.7" y="-1" relative="1" as="geometry">
            <mxPoint as="offset" />
          </mxGeometry>
        </mxCell>
        <mxCell id="6py6n70W8u-sqlm3amzu-59" value="" style="endArrow=none;html=1;rounded=0;" parent="1" source="6py6n70W8u-sqlm3amzu-42" target="6py6n70W8u-sqlm3amzu-57" edge="1">
          <mxGeometry relative="1" as="geometry">
            <mxPoint x="460" y="330" as="sourcePoint" />
            <mxPoint x="620" y="330" as="targetPoint" />
          </mxGeometry>
        </mxCell>
        <mxCell id="6py6n70W8u-sqlm3amzu-61" value="(1, N)" style="edgeLabel;html=1;align=center;verticalAlign=middle;resizable=0;points=[];" parent="6py6n70W8u-sqlm3amzu-59" vertex="1" connectable="0">
          <mxGeometry x="-0.64" y="2" relative="1" as="geometry">
            <mxPoint as="offset" />
          </mxGeometry>
        </mxCell>
        <mxCell id="6py6n70W8u-sqlm3amzu-62" value="Kamer" style="whiteSpace=wrap;html=1;align=center;" parent="1" vertex="1">
          <mxGeometry x="84" y="130" width="100" height="40" as="geometry" />
        </mxCell>
        <mxCell id="6py6n70W8u-sqlm3amzu-63" value="ExtraDienst" style="whiteSpace=wrap;html=1;align=center;" parent="1" vertex="1">
          <mxGeometry x="84" y="430" width="100" height="40" as="geometry" />
        </mxCell>
        <mxCell id="6py6n70W8u-sqlm3amzu-64" value="Naam" style="ellipse;whiteSpace=wrap;html=1;align=center;" parent="1" vertex="1">
          <mxGeometry x="-50" y="420" width="100" height="40" as="geometry" />
        </mxCell>
        <mxCell id="6py6n70W8u-sqlm3amzu-65" value="Capaciteit" style="ellipse;whiteSpace=wrap;html=1;align=center;" parent="1" vertex="1">
          <mxGeometry x="-40" y="90" width="100" height="40" as="geometry" />
        </mxCell>
        <mxCell id="6py6n70W8u-sqlm3amzu-66" value="KamerType" style="ellipse;whiteSpace=wrap;html=1;align=center;" parent="1" vertex="1">
          <mxGeometry x="-100" y="140" width="100" height="40" as="geometry" />
        </mxCell>
        <mxCell id="6py6n70W8u-sqlm3amzu-67" value="KamerID" style="ellipse;whiteSpace=wrap;html=1;align=center;fontStyle=4;" parent="1" vertex="1">
          <mxGeometry x="-30" y="180" width="100" height="40" as="geometry" />
        </mxCell>
        <mxCell id="6py6n70W8u-sqlm3amzu-68" value="" style="endArrow=none;html=1;rounded=0;" parent="1" source="6py6n70W8u-sqlm3amzu-67" target="6py6n70W8u-sqlm3amzu-62" edge="1">
          <mxGeometry relative="1" as="geometry">
            <mxPoint y="145" as="sourcePoint" />
            <mxPoint x="160" y="145" as="targetPoint" />
          </mxGeometry>
        </mxCell>
        <mxCell id="6py6n70W8u-sqlm3amzu-69" value="" style="endArrow=none;html=1;rounded=0;" parent="1" source="6py6n70W8u-sqlm3amzu-65" target="6py6n70W8u-sqlm3amzu-62" edge="1">
          <mxGeometry relative="1" as="geometry">
            <mxPoint y="145" as="sourcePoint" />
            <mxPoint x="160" y="145" as="targetPoint" />
          </mxGeometry>
        </mxCell>
        <mxCell id="6py6n70W8u-sqlm3amzu-70" value="" style="endArrow=none;html=1;rounded=0;" parent="1" source="6py6n70W8u-sqlm3amzu-66" target="6py6n70W8u-sqlm3amzu-62" edge="1">
          <mxGeometry relative="1" as="geometry">
            <mxPoint y="145" as="sourcePoint" />
            <mxPoint x="160" y="145" as="targetPoint" />
          </mxGeometry>
        </mxCell>
        <mxCell id="6py6n70W8u-sqlm3amzu-71" value="DienstID" style="ellipse;whiteSpace=wrap;html=1;align=center;fontStyle=4;" parent="1" vertex="1">
          <mxGeometry y="370" width="100" height="40" as="geometry" />
        </mxCell>
        <mxCell id="6py6n70W8u-sqlm3amzu-73" value="Beschrijving" style="ellipse;whiteSpace=wrap;html=1;align=center;" parent="1" vertex="1">
          <mxGeometry x="120" y="490" width="100" height="40" as="geometry" />
        </mxCell>
        <mxCell id="6py6n70W8u-sqlm3amzu-74" value="Datum" style="ellipse;whiteSpace=wrap;html=1;align=center;" parent="1" vertex="1">
          <mxGeometry y="500" width="100" height="40" as="geometry" />
        </mxCell>
        <mxCell id="6py6n70W8u-sqlm3amzu-75" value="Kosten" style="ellipse;whiteSpace=wrap;html=1;align=center;" parent="1" vertex="1">
          <mxGeometry x="-100" y="470" width="100" height="40" as="geometry" />
        </mxCell>
        <mxCell id="6py6n70W8u-sqlm3amzu-76" value="" style="endArrow=none;html=1;rounded=0;" parent="1" source="6py6n70W8u-sqlm3amzu-63" target="6py6n70W8u-sqlm3amzu-73" edge="1">
          <mxGeometry relative="1" as="geometry">
            <mxPoint x="164" y="435" as="sourcePoint" />
            <mxPoint x="324" y="435" as="targetPoint" />
          </mxGeometry>
        </mxCell>
        <mxCell id="6py6n70W8u-sqlm3amzu-77" value="" style="endArrow=none;html=1;rounded=0;" parent="1" source="6py6n70W8u-sqlm3amzu-63" target="6py6n70W8u-sqlm3amzu-71" edge="1">
          <mxGeometry relative="1" as="geometry">
            <mxPoint x="164" y="435" as="sourcePoint" />
            <mxPoint x="324" y="435" as="targetPoint" />
          </mxGeometry>
        </mxCell>
        <mxCell id="6py6n70W8u-sqlm3amzu-78" value="" style="endArrow=none;html=1;rounded=0;" parent="1" source="6py6n70W8u-sqlm3amzu-63" target="6py6n70W8u-sqlm3amzu-64" edge="1">
          <mxGeometry relative="1" as="geometry">
            <mxPoint x="164" y="435" as="sourcePoint" />
            <mxPoint x="324" y="435" as="targetPoint" />
          </mxGeometry>
        </mxCell>
        <mxCell id="6py6n70W8u-sqlm3amzu-79" value="" style="endArrow=none;html=1;rounded=0;" parent="1" source="6py6n70W8u-sqlm3amzu-63" target="6py6n70W8u-sqlm3amzu-75" edge="1">
          <mxGeometry relative="1" as="geometry">
            <mxPoint x="154" y="445" as="sourcePoint" />
            <mxPoint x="324" y="435" as="targetPoint" />
          </mxGeometry>
        </mxCell>
        <mxCell id="6py6n70W8u-sqlm3amzu-80" value="" style="endArrow=none;html=1;rounded=0;" parent="1" source="6py6n70W8u-sqlm3amzu-63" target="6py6n70W8u-sqlm3amzu-74" edge="1">
          <mxGeometry relative="1" as="geometry">
            <mxPoint x="164" y="435" as="sourcePoint" />
            <mxPoint x="324" y="435" as="targetPoint" />
          </mxGeometry>
        </mxCell>
        <mxCell id="6py6n70W8u-sqlm3amzu-82" value="is deel van" style="shape=rhombus;perimeter=rhombusPerimeter;whiteSpace=wrap;html=1;align=center;" parent="1" vertex="1">
          <mxGeometry x="240" y="290" width="120" height="60" as="geometry" />
        </mxCell>
        <mxCell id="6py6n70W8u-sqlm3amzu-83" value="Omvat" style="shape=rhombus;perimeter=rhombusPerimeter;whiteSpace=wrap;html=1;align=center;" parent="1" vertex="1">
          <mxGeometry x="270" y="120" width="120" height="60" as="geometry" />
        </mxCell>
        <mxCell id="6py6n70W8u-sqlm3amzu-84" value="" style="endArrow=none;html=1;rounded=0;" parent="1" source="6py6n70W8u-sqlm3amzu-62" target="6py6n70W8u-sqlm3amzu-83" edge="1">
          <mxGeometry relative="1" as="geometry">
            <mxPoint x="160" y="250" as="sourcePoint" />
            <mxPoint x="320" y="250" as="targetPoint" />
          </mxGeometry>
        </mxCell>
        <mxCell id="6py6n70W8u-sqlm3amzu-95" value="(0, 1)" style="edgeLabel;html=1;align=center;verticalAlign=middle;resizable=0;points=[];" parent="6py6n70W8u-sqlm3amzu-84" vertex="1" connectable="0">
          <mxGeometry x="-0.7678" y="-1" relative="1" as="geometry">
            <mxPoint x="7" y="-3" as="offset" />
          </mxGeometry>
        </mxCell>
        <mxCell id="6py6n70W8u-sqlm3amzu-85" value="" style="endArrow=none;html=1;rounded=0;" parent="1" source="6py6n70W8u-sqlm3amzu-42" target="6py6n70W8u-sqlm3amzu-83" edge="1">
          <mxGeometry relative="1" as="geometry">
            <mxPoint x="90" y="250" as="sourcePoint" />
            <mxPoint x="250" y="250" as="targetPoint" />
          </mxGeometry>
        </mxCell>
        <mxCell id="6py6n70W8u-sqlm3amzu-96" value="(1, N)" style="edgeLabel;html=1;align=center;verticalAlign=middle;resizable=0;points=[];" parent="6py6n70W8u-sqlm3amzu-85" vertex="1" connectable="0">
          <mxGeometry x="-0.6654" y="1" relative="1" as="geometry">
            <mxPoint y="-3" as="offset" />
          </mxGeometry>
        </mxCell>
        <mxCell id="6py6n70W8u-sqlm3amzu-86" value="" style="endArrow=none;html=1;rounded=0;" parent="1" source="6py6n70W8u-sqlm3amzu-63" target="6py6n70W8u-sqlm3amzu-82" edge="1">
          <mxGeometry relative="1" as="geometry">
            <mxPoint x="160" y="250" as="sourcePoint" />
            <mxPoint x="320" y="250" as="targetPoint" />
          </mxGeometry>
        </mxCell>
        <mxCell id="6py6n70W8u-sqlm3amzu-103" value="(0, M)" style="edgeLabel;html=1;align=center;verticalAlign=middle;resizable=0;points=[];" parent="6py6n70W8u-sqlm3amzu-86" vertex="1" connectable="0">
          <mxGeometry x="-0.6341" y="-5" relative="1" as="geometry">
            <mxPoint x="-7" y="-1" as="offset" />
          </mxGeometry>
        </mxCell>
        <mxCell id="6py6n70W8u-sqlm3amzu-87" value="" style="endArrow=none;html=1;rounded=0;" parent="1" source="6py6n70W8u-sqlm3amzu-42" target="6py6n70W8u-sqlm3amzu-82" edge="1">
          <mxGeometry relative="1" as="geometry">
            <mxPoint x="90" y="250" as="sourcePoint" />
            <mxPoint x="250" y="250" as="targetPoint" />
          </mxGeometry>
        </mxCell>
        <mxCell id="6py6n70W8u-sqlm3amzu-102" value="(0, N)" style="edgeLabel;html=1;align=center;verticalAlign=middle;resizable=0;points=[];" parent="6py6n70W8u-sqlm3amzu-87" vertex="1" connectable="0">
          <mxGeometry x="-0.6707" y="-1" relative="1" as="geometry">
            <mxPoint as="offset" />
          </mxGeometry>
        </mxCell>
        <mxCell id="6py6n70W8u-sqlm3amzu-89" value="" style="endArrow=none;html=1;rounded=0;" parent="1" source="6py6n70W8u-sqlm3amzu-90" target="pUwQ2fJmEz475Cd50NN1-26" edge="1">
          <mxGeometry relative="1" as="geometry">
            <mxPoint x="1041.67" as="sourcePoint" />
            <mxPoint x="950.6700000000001" y="50" as="targetPoint" />
          </mxGeometry>
        </mxCell>
        <mxCell id="6py6n70W8u-sqlm3amzu-90" value="Volgorde" style="ellipse;whiteSpace=wrap;html=1;align=center;dashed=1;" parent="1" vertex="1">
          <mxGeometry x="980.6700000000001" y="10" width="100" height="40" as="geometry" />
        </mxCell>
        <mxCell id="6py6n70W8u-sqlm3amzu-91" value="Datum" style="ellipse;whiteSpace=wrap;html=1;align=center;" parent="1" vertex="1">
          <mxGeometry x="670" y="130" width="100" height="40" as="geometry" />
        </mxCell>
        <mxCell id="6py6n70W8u-sqlm3amzu-92" value="HoofdBoekerID" style="ellipse;whiteSpace=wrap;html=1;align=center;" parent="1" vertex="1">
          <mxGeometry x="610" y="170" width="100" height="40" as="geometry" />
        </mxCell>
        <mxCell id="6py6n70W8u-sqlm3amzu-93" value="" style="endArrow=none;html=1;rounded=0;" parent="1" source="6py6n70W8u-sqlm3amzu-92" target="6py6n70W8u-sqlm3amzu-42" edge="1">
          <mxGeometry relative="1" as="geometry">
            <mxPoint x="340" y="220" as="sourcePoint" />
            <mxPoint x="500" y="220" as="targetPoint" />
          </mxGeometry>
        </mxCell>
        <mxCell id="6py6n70W8u-sqlm3amzu-94" value="" style="endArrow=none;html=1;rounded=0;" parent="1" source="6py6n70W8u-sqlm3amzu-91" target="6py6n70W8u-sqlm3amzu-42" edge="1">
          <mxGeometry relative="1" as="geometry">
            <mxPoint x="340" y="220" as="sourcePoint" />
            <mxPoint x="500" y="220" as="targetPoint" />
          </mxGeometry>
        </mxCell>
        <mxCell id="6py6n70W8u-sqlm3amzu-97" value="Behoort tot" style="shape=rhombus;perimeter=rhombusPerimeter;whiteSpace=wrap;html=1;align=center;" parent="1" vertex="1">
          <mxGeometry x="74" y="-30" width="120" height="60" as="geometry" />
        </mxCell>
        <mxCell id="6py6n70W8u-sqlm3amzu-98" value="" style="endArrow=none;html=1;rounded=0;" parent="1" source="6py6n70W8u-sqlm3amzu-97" target="pUwQ2fJmEz475Cd50NN1-1" edge="1">
          <mxGeometry relative="1" as="geometry">
            <mxPoint x="-100" y="130" as="sourcePoint" />
            <mxPoint x="60" y="130" as="targetPoint" />
          </mxGeometry>
        </mxCell>
        <mxCell id="6py6n70W8u-sqlm3amzu-101" value="(1, N)" style="edgeLabel;html=1;align=center;verticalAlign=middle;resizable=0;points=[];" parent="6py6n70W8u-sqlm3amzu-98" vertex="1" connectable="0">
          <mxGeometry x="0.5963" relative="1" as="geometry">
            <mxPoint as="offset" />
          </mxGeometry>
        </mxCell>
        <mxCell id="6py6n70W8u-sqlm3amzu-99" value="" style="endArrow=none;html=1;rounded=0;" parent="1" source="6py6n70W8u-sqlm3amzu-97" target="6py6n70W8u-sqlm3amzu-62" edge="1">
          <mxGeometry relative="1" as="geometry">
            <mxPoint x="-100" y="90" as="sourcePoint" />
            <mxPoint x="60" y="90" as="targetPoint" />
          </mxGeometry>
        </mxCell>
        <mxCell id="6py6n70W8u-sqlm3amzu-100" value="(1, 1)" style="edgeLabel;html=1;align=center;verticalAlign=middle;resizable=0;points=[];" parent="6py6n70W8u-sqlm3amzu-99" vertex="1" connectable="0">
          <mxGeometry x="0.5524" y="-1" relative="1" as="geometry">
            <mxPoint as="offset" />
          </mxGeometry>
        </mxCell>
        <mxCell id="8hWVe5ELPwIQstlE2EVW-1" value="Prijs" style="ellipse;whiteSpace=wrap;html=1;align=center;" parent="1" vertex="1">
          <mxGeometry x="74" y="200" width="100" height="40" as="geometry" />
        </mxCell>
        <mxCell id="8hWVe5ELPwIQstlE2EVW-2" value="" style="endArrow=none;html=1;rounded=0;" parent="1" source="8hWVe5ELPwIQstlE2EVW-1" target="6py6n70W8u-sqlm3amzu-62" edge="1">
          <mxGeometry relative="1" as="geometry">
            <mxPoint x="680" y="210" as="sourcePoint" />
            <mxPoint x="840" y="210" as="targetPoint" />
          </mxGeometry>
        </mxCell>
        <mxCell id="ATW3YSRWSsZ-E26F2_L5-1" value="Duur" style="ellipse;whiteSpace=wrap;html=1;align=center;" vertex="1" parent="1">
          <mxGeometry x="1000.6700000000001" y="-180" width="100" height="40" as="geometry" />
        </mxCell>
        <mxCell id="ATW3YSRWSsZ-E26F2_L5-2" value="" style="endArrow=none;html=1;rounded=0;fontSize=12;startSize=8;endSize=8;curved=1;" edge="1" parent="1" source="6py6n70W8u-sqlm3amzu-8" target="ATW3YSRWSsZ-E26F2_L5-1">
          <mxGeometry relative="1" as="geometry">
            <mxPoint x="670.67" as="sourcePoint" />
            <mxPoint x="830.67" as="targetPoint" />
          </mxGeometry>
        </mxCell>
      </root>
    </mxGraphModel>
  </diagram>
</mxfile>
